<svg width="211" height="53" viewBox="0 0 211 53" fill="none" xmlns="http://www.w3.org/2000/svg">
<path d="M55.7062 19.7141L62.8859 21.3017L61.0228 31.6924L52.1158 31.1249L55.7062 19.7141Z" fill="url(#paint0_linear_18_3)"/>
<path d="M82.7433 38.0752L89.1672 37.8972L88.2849 44.7315L81.7596 43.5614L82.7433 38.0752Z" fill="url(#paint1_linear_18_3)"/>
<path d="M49.5131 41.812C49.9 39.6543 51.9628 38.2187 54.1205 38.6056L88.2849 44.7315L87.5844 48.6384C87.1975 50.7961 85.1347 52.2316 82.977 51.8447L52.2207 46.3299C50.3384 45.9924 49.0862 44.193 49.4237 42.3107L49.5131 41.812Z" fill="#6E5980"/>
<path d="M52.0988 31.2191C52.4539 29.2389 54.347 27.9215 56.3271 28.2766L86.2301 33.6383C88.2102 33.9934 89.5277 35.8865 89.1726 37.8667C88.8527 39.651 87.1468 40.8381 85.3625 40.5182L54.7503 35.0292C52.966 34.7093 51.7789 33.0034 52.0988 31.2191Z" fill="#C06C84"/>
<path d="M76.2537 3.45043C65.6968 1.55752 63.7314 18.0214 63.3436 18.5096L68.6636 19.4635C68.9648 15.4707 70.7228 7.69236 75.3445 8.52106C79.9663 9.34977 78.9121 17.2543 77.8074 21.103L82.9195 22.0197C84.2166 16.4609 84.6992 4.96476 76.2537 3.45043Z" fill="url(#paint2_linear_18_3)"/>
<path d="M55.4888 20.4474C55.8634 18.3585 57.8603 16.9688 59.9492 17.3433L86.7155 22.1427C88.8043 22.5172 90.194 24.5142 89.8195 26.603C89.4449 28.6919 87.448 30.0816 85.3591 29.7071L58.5928 24.9077C56.504 24.5332 55.1143 22.5362 55.4888 20.4474Z" fill="#F67280"/>
<path d="M96.5307 44.8862V23.8048H100.67V32.5056H108.554V23.8048H112.68V44.8862H108.554V36.1342H100.67V44.8862H96.5307ZM126.132 45.295C124.659 45.295 123.279 45.0139 121.993 44.4518C120.706 43.8896 119.578 43.1102 118.607 42.1136C117.636 41.1086 116.873 39.9459 116.32 38.6256C115.775 37.2969 115.502 35.8744 115.502 34.3582C115.502 32.8421 115.775 31.4239 116.32 30.1036C116.873 28.7749 117.636 27.6122 118.607 26.6156C119.578 25.6105 120.706 24.8269 121.993 24.2647C123.279 23.7026 124.659 23.4215 126.132 23.4215C127.606 23.4215 128.986 23.7026 130.272 24.2647C131.558 24.8269 132.687 25.6105 133.658 26.6156C134.629 27.6122 135.387 28.7749 135.932 30.1036C136.485 31.4239 136.762 32.8421 136.762 34.3582C136.762 35.8744 136.485 37.2969 135.932 38.6256C135.387 39.9459 134.629 41.1086 133.658 42.1136C132.687 43.1102 131.558 43.8896 130.272 44.4518C128.986 45.0139 127.606 45.295 126.132 45.295ZM126.119 41.3087C127.022 41.3087 127.848 41.1384 128.598 40.7977C129.348 40.4569 129.999 39.9757 130.553 39.3539C131.106 38.7321 131.537 37.9996 131.843 37.1563C132.15 36.3046 132.303 35.3719 132.303 34.3582C132.303 33.3446 132.15 32.4162 131.843 31.573C131.537 30.7212 131.106 29.9844 130.553 29.3626C129.999 28.7408 129.348 28.2596 128.598 27.9188C127.848 27.5781 127.022 27.4078 126.119 27.4078C125.234 27.4078 124.412 27.5781 123.653 27.9188C122.904 28.2596 122.252 28.7408 121.699 29.3626C121.145 29.9844 120.715 30.7212 120.408 31.573C120.11 32.4162 119.961 33.3446 119.961 34.3582C119.961 35.3719 120.11 36.3046 120.408 37.1563C120.715 37.9996 121.145 38.7321 121.699 39.3539C122.252 39.9757 122.904 40.4569 123.653 40.7977C124.412 41.1384 125.234 41.3087 126.119 41.3087ZM139.561 44.8862V23.8048H146.741C148.113 23.8048 149.331 24.0433 150.395 24.5203C151.46 24.9973 152.299 25.7085 152.912 26.654C153.526 27.5909 153.832 28.7621 153.832 30.1675C153.832 31.5644 153.526 32.7569 152.912 33.745C152.299 34.733 151.46 35.4911 150.395 36.0192C149.331 36.5388 148.113 36.7986 146.741 36.7986H143.701V44.8862H139.561ZM143.701 33.4894H145.464C146.188 33.4894 146.852 33.383 147.457 33.17C148.07 32.9571 148.564 32.6164 148.939 32.1479C149.314 31.6794 149.501 31.0619 149.501 30.2953C149.501 29.5202 149.314 28.9026 148.939 28.4427C148.564 27.9742 148.07 27.6378 147.457 27.4333C146.852 27.2204 146.188 27.1139 145.464 27.1139H143.701V33.4894ZM156.247 44.8862V23.8048H163.428C164.799 23.8048 166.017 24.0433 167.082 24.5203C168.147 24.9973 168.986 25.7085 169.599 26.654C170.212 27.5909 170.519 28.7621 170.519 30.1675C170.519 31.5644 170.212 32.7569 169.599 33.745C168.986 34.733 168.147 35.4911 167.082 36.0192C166.017 36.5388 164.799 36.7986 163.428 36.7986H160.387V44.8862H156.247ZM160.387 33.4894H162.15C162.874 33.4894 163.539 33.383 164.143 33.17C164.757 32.9571 165.251 32.6164 165.625 32.1479C166 31.6794 166.188 31.0619 166.188 30.2953C166.188 29.5202 166 28.9026 165.625 28.4427C165.251 27.9742 164.757 27.6378 164.143 27.4333C163.539 27.2204 162.874 27.1139 162.15 27.1139H160.387V33.4894ZM172.934 44.8862V23.8048H184.663V27.4333H177.073V32.5056H184.356V36.1342H177.073V41.2576H184.663V44.8862H172.934ZM188.323 44.8862V23.8048H195.503C196.943 23.8048 198.19 24.0603 199.247 24.5714C200.311 25.0739 201.133 25.8022 201.713 26.7562C202.3 27.7016 202.594 28.843 202.594 30.1803C202.594 31.2365 202.407 32.1905 202.032 33.0423C201.657 33.8855 201.121 34.5967 200.422 35.176C199.724 35.7552 198.876 36.1853 197.88 36.4664L204.779 44.8862H199.528L193.446 36.9391H192.462V44.8862H188.323ZM192.462 33.4894H194.225C195.086 33.4894 195.814 33.3659 196.41 33.1189C197.006 32.8719 197.462 32.5099 197.777 32.0329C198.101 31.5474 198.263 30.9682 198.263 30.2953C198.263 29.2732 197.909 28.4895 197.202 27.9444C196.504 27.3907 195.512 27.1139 194.225 27.1139H192.462V33.4894Z" fill="black"/>
<path d="M12.1236 45.2123C10.6219 45.2123 9.22187 44.9252 7.92339 44.351C6.62491 43.7769 5.48984 42.9775 4.51819 41.9528C3.54653 40.9193 2.78688 39.7136 2.23922 38.3356C1.69156 36.9576 1.41773 35.4648 1.41773 33.8572C1.41773 32.3202 1.67389 30.8716 2.18622 29.5112C2.69854 28.1421 3.43612 26.9364 4.39894 25.894C5.36176 24.8429 6.52332 24.0214 7.88364 23.4296C9.24395 22.8289 10.7677 22.5286 12.4548 22.5286C13.4088 22.5286 14.3672 22.6346 15.33 22.8466C16.3017 23.0586 17.2336 23.3722 18.1257 23.7873C19.0179 24.1936 19.8217 24.6927 20.5372 25.2845L18.5232 28.6103C17.7547 27.8948 16.8228 27.3427 15.7275 26.954C14.641 26.5565 13.5678 26.3578 12.5078 26.3578C11.4655 26.3578 10.5424 26.5433 9.73861 26.9143C8.94362 27.2764 8.2723 27.7888 7.72464 28.4513C7.17698 29.1137 6.76182 29.8911 6.47916 30.7832C6.19649 31.6665 6.05516 32.6294 6.05516 33.6717C6.05516 34.8112 6.21416 35.8446 6.53216 36.7721C6.85015 37.6996 7.29181 38.499 7.85714 39.1703C8.4313 39.8417 9.0982 40.3584 9.85786 40.7206C10.6263 41.0827 11.4523 41.2638 12.3356 41.2638C13.0422 41.2638 13.7224 41.149 14.376 40.9193C15.0385 40.6808 15.6259 40.3496 16.1383 39.9256C16.6506 39.5016 17.0569 39.0025 17.3573 38.4284C17.6576 37.8542 17.8077 37.227 17.8077 36.5469V36.2156H12.0706V32.8899H22.1802V36.2024C22.1802 37.5362 21.9019 38.7552 21.3454 39.8593C20.7978 40.9547 20.047 41.9042 19.093 42.708C18.139 43.503 17.0613 44.1214 15.86 44.563C14.6587 44.9958 13.4132 45.2123 12.1236 45.2123ZM34.4812 45.2123C32.953 45.2123 31.5221 44.9208 30.1882 44.3378C28.8544 43.7548 27.684 42.9465 26.677 41.9131C25.6701 40.8707 24.8795 39.665 24.3053 38.2959C23.74 36.9179 23.4573 35.4427 23.4573 33.8704C23.4573 32.2981 23.74 30.8274 24.3053 29.4582C24.8795 28.0803 25.6701 26.8745 26.677 25.841C27.684 24.7987 28.8544 23.9861 30.1882 23.4031C31.5221 22.8201 32.953 22.5286 34.4812 22.5286C36.0093 22.5286 37.4403 22.8201 38.7741 23.4031C40.1079 23.9861 41.2783 24.7987 42.2853 25.841C43.2923 26.8745 44.0785 28.0803 44.6438 29.4582C45.2179 30.8274 45.505 32.2981 45.505 33.8704C45.505 35.4427 45.2179 36.9179 44.6438 38.2959C44.0785 39.665 43.2923 40.8707 42.2853 41.9131C41.2783 42.9465 40.1079 43.7548 38.7741 44.3378C37.4403 44.9208 36.0093 45.2123 34.4812 45.2123ZM34.4679 41.0783C35.4042 41.0783 36.2611 40.9017 37.0384 40.5483C37.8157 40.195 38.4915 39.6959 39.0656 39.0511C39.6398 38.4063 40.0858 37.6466 40.4038 36.7721C40.7218 35.8888 40.8808 34.9216 40.8808 33.8704C40.8808 32.8193 40.7218 31.8565 40.4038 30.982C40.0858 30.0986 39.6398 29.3346 39.0656 28.6898C38.4915 28.0449 37.8157 27.5458 37.0384 27.1925C36.2611 26.8392 35.4042 26.6625 34.4679 26.6625C33.5493 26.6625 32.6969 26.8392 31.9107 27.1925C31.1334 27.5458 30.4577 28.0449 29.8835 28.6898C29.3093 29.3346 28.8633 30.0986 28.5453 30.982C28.2361 31.8565 28.0815 32.8193 28.0815 33.8704C28.0815 34.9216 28.2361 35.8888 28.5453 36.7721C28.8633 37.6466 29.3093 38.4063 29.8835 39.0511C30.4577 39.6959 31.1334 40.195 31.9107 40.5483C32.6969 40.9017 33.5493 41.0783 34.4679 41.0783Z" fill="black"/>
<defs>
<linearGradient id="paint0_linear_18_3" x1="57.6829" y1="24.959" x2="56.9898" y2="28.8243" gradientUnits="userSpaceOnUse">
<stop stop-color="#F67280"/>
<stop offset="1" stop-color="#C06C84"/>
</linearGradient>
<linearGradient id="paint1_linear_18_3" x1="85.6542" y1="40.7421" x2="85.0431" y2="44.1502" gradientUnits="userSpaceOnUse">
<stop stop-color="#C06C84"/>
<stop offset="1" stop-color="#6E5980"/>
</linearGradient>
<linearGradient id="paint2_linear_18_3" x1="76.1661" y1="3.43473" x2="73.4496" y2="19.8069" gradientUnits="userSpaceOnUse">
<stop stop-color="#307773"/>
<stop offset="1" stop-color="#F67280"/>
</linearGradient>
</defs>
</svg>
